<?xml version="1.0" encoding="UTF-8" standalone="no"?>
<!-- Created with Inkscape (http://www.inkscape.org/) -->

<svg
   width="210mm"
   height="297mm"
   viewBox="0 0 210 297"
   version="1.1"
   id="svg5"
   xml:space="preserve"
   inkscape:version="1.2 (dc2aedaf03, 2022-05-15)"
   sodipodi:docname="Remindeer SVG.svg"
   xmlns:inkscape="http://www.inkscape.org/namespaces/inkscape"
   xmlns:sodipodi="http://sodipodi.sourceforge.net/DTD/sodipodi-0.dtd"
   xmlns="http://www.w3.org/2000/svg"
   xmlns:svg="http://www.w3.org/2000/svg"><sodipodi:namedview
     id="namedview7"
     pagecolor="#ffffff"
     bordercolor="#eeeeee"
     borderopacity="1"
     inkscape:showpageshadow="0"
     inkscape:pageopacity="0"
     inkscape:pagecheckerboard="0"
     inkscape:deskcolor="#ffffff"
     inkscape:document-units="mm"
     showgrid="false"
     borderlayer="false"
     inkscape:zoom="0.31693712"
     inkscape:cx="-664.16961"
     inkscape:cy="-331.296"
     inkscape:window-width="1920"
     inkscape:window-height="1009"
     inkscape:window-x="-8"
     inkscape:window-y="-8"
     inkscape:window-maximized="1"
     inkscape:current-layer="layer1" /><defs
     id="defs2" /><g
     inkscape:label="Layer 1"
     inkscape:groupmode="layer"
     id="layer1"><path
       style="fill:#c4c4c4;stroke-width:0.264583;fill-opacity:1"
       d="m -69.563648,-76.899147 c -0.57189,-0.47982 -3.00434,-2.41078 -5.40543,-4.29099 -8.27,-6.47602 -24.24126,-19.303283 -37.529662,-30.141863 -7.32615,-5.97551 -15.72006,-12.79856 -18.65312,-15.16234 -3.0533,-2.46065 -5.43866,-4.57883 -5.58039,-4.9553 -0.26686,-0.7089 -0.35651,-0.14801 2.60189,-16.27921 0.94742,-5.16599 2.74081,-15.52443 3.98531,-23.01875 2.2309,-13.43446 2.67189,-16.0411 5.05811,-29.89791 2.6676,-15.49082 4.78582,-26.67063 5.58339,-29.46879 0.10032,-0.35194 0.66887,0.5167 1.94876,2.97735 0.99391,1.91084 3.46025,6.00398 5.48075,9.09587 8.89006,13.60409 19.875362,32.25227 20.325732,34.50411 0.21455,1.07275 -0.0996,1.60999 -2.36612,4.04643 -3.4958,3.7579 -5.15491,7.54723 -5.39259,12.31649 -0.14954,3.00049 0.24466,5.02691 1.49229,7.67124 1.23055,2.60818 2.82972,4.46505 6.99302,8.11999 2.17322,1.90785 7.87882,7.11212 12.6791,11.56504 4.80029,4.45291 9.01441,8.31673 9.36471,8.58623 0.39637,0.30496 0.85918,0.43146 1.22547,0.33499 0.3237,-0.0853 2.07684,-1.54649 3.89585,-3.24718 5.30004,-4.95527 15.54742,-14.34517 17.99167,-16.48614 5.20343,-4.55782 6.44985,-5.96486 7.934245,-8.95666 3.01352,-6.0738 1.41871,-14.25832 -3.874805,-19.88535 -2.52033,-2.67913 -2.79773,-3.20656 -2.35155,-4.47115 1.09919,-3.11545 12.256695,-21.9524 20.014675,-33.79033 2.02123,-3.0842 4.56799,-7.25795 5.65946,-9.27499 1.09147,-2.01705 1.98499,-3.57719 1.98561,-3.46698 5.3e-4,0.11021 0.35167,1.77709 0.78012,3.70417 0.81365,3.65959 2.17998,10.856 3.30255,17.39441 0.36227,2.11005 1.02923,5.97958 1.48214,8.59895 0.4529,2.61938 1.1725795,6.78657 1.5992895,9.26042 0.42671,2.47385 1.7903,10.62964 3.0302,18.12396 2.98982,18.07129 5.02487,29.54964 6.90923004,38.97029 0.22672,1.13353 0.33938,2.3512 0.25034,2.70597 -0.10467,0.41704 -1.58679,1.7911 -4.19326004,3.88755 -2.21725,1.7834 -8.9144695,7.23321 -14.8827095,12.11072 -26.428355,21.598363 -49.153765,39.676283 -49.889065,39.686423 -0.22847,0.003 -0.88331,-0.38685 -1.45521,-0.86667 z m -5.17123,-66.935233 c -3.43645,-3.37889 -7.02402,-7.00592 -7.97237,-8.06008 -1.4581,-1.62078 -2.01218,-2.03382 -3.58919,-2.67559 -3.85114,-1.56723 -6.6939,-4.28515 -8.0321,-7.67934 -0.84434,-2.14156 -0.84383,-6.05884 10e-4,-8.6305 1.26783,-3.85875 4.09647,-7.45927 7.13064,-9.07647 0.8471,-0.4515 1.76382,-1.06803 2.03717,-1.37007 0.61881,-0.68378 0.74104,-0.29485 -3.49402,-11.117 -1.73689,-4.43839 -4.50731,-11.67143 -6.1565,-16.07344 -1.64912,-4.402 -3.10728,-8.00364 -3.24028,-8.00364 -0.65311,0 -5.870272,-2.25065 -7.692082,-3.31831 -4.7137,-2.7624 -9.31572,-8.44285 -11.03027,-13.61503 -1.12583,-3.39621 -0.89111,-9.76858 0.36875,-10.01121 0.63098,-0.12151 8.36188,5.05117 10.47963,7.01183 3.07903,2.85064 5.61261,7.04214 7.057112,11.67514 l 0.7089,2.2737 0.74921,-3.02734 c 2.30604,-9.31791 1.20884,-15.3731 -3.577542,-19.74354 -3.41193,-3.11544 -7.99238,-3.49398 -13.21022,-1.09174 -0.98412,0.45308 -1.84759,0.7655 -1.91882,0.69427 -0.26599,-0.266 2.29604,-9.41512 3.13307,-11.18835 l 0.8703,-1.8437 -3.55739,-4.90317 c -4.13043,-5.69302 -7.91784,-10.62804 -11.18774,-14.57769 -8.13213,-9.82268 -16.45776,-14.44415 -28.04917,-15.5698 -1.99135,-0.19339 -2.89698,-0.42402 -4.15133,-1.05722 -0.88239,-0.44542 -4.6878,-2.23021 -8.45646,-3.96619 -8.67201,-3.99463 -15.6165,-7.46876 -19.43346,-9.72202 -11.1929,-6.60749 -24.28322,-17.07098 -27.57655,-22.04278 -2.56521,-3.87259 -3.46144,-7.33224 -3.43023,-13.24144 0.0442,-8.36192 2.83802,-19.18407 7.30061,-28.27939 2.36478,-4.81972 3.63682,-6.43385 5.31898,-6.74942 1.31213,-0.24616 2.68494,0.36545 3.24313,1.44486 0.52837,1.02175 0.43136,3.53265 -0.25398,6.57389 -0.84261,3.73915 -1.23828,7.324 -1.38961,12.59027 -0.32101,11.1704 1.00202,19.38305 3.4033,21.12585 0.61255,0.44458 0.81801,0.47142 1.48703,0.19431 1.46075,-0.60506 1.63966,-1.84047 0.98018,-6.76807 -0.44961,-3.35946 -0.52054,-10.63159 -0.13556,-13.89757 1.70768,-14.48707 8.15254,-28.30036 21.22959,-45.50139 2.13532,-2.80872 2.96774,-3.69907 3.89605,-4.16719 1.40921,-0.71062 2.13144,-0.74346 3.37477,-0.15347 2.13153,1.01148 2.44399,3.1403 1.0303,7.01951 -4.24849,11.65799 -8.38905,21.69242 -11.59628,28.10292 -4.31983,8.63435 -6.02937,17.40273 -5.27318,27.04671 0.7573,9.65821 2.93059,16.90924 6.17166,20.59129 1.16125,1.31925 2.21492,1.57144 3.32296,0.79533 1.00131,-0.70134 0.97608,-1.79071 -0.15628,-6.74657 -2.05966,-9.01436 -2.54358,-13.4251 -2.34566,-21.37991 0.14796,-5.94657 0.49323,-8.72817 1.64964,-13.2902 1.91927,-7.57149 5.47475,-15.05021 10.14543,-21.34027 4.09401,-5.51344 9.3604,-9.11409 12.14034,-8.30041 1.9714,0.57702 3.24221,2.18701 3.24221,4.10754 0,0.52828 -0.6103,2.53435 -1.35623,4.45793 -3.88813,10.0266 -6.31335,19.16901 -7.69094,28.99273 -0.48146,3.43332 -0.58109,5.37711 -0.58503,11.41406 -0.005,7.74956 0.25615,10.60456 1.56281,17.08136 2.1586,10.69974 7.06994,18.74193 14.55169,23.82804 4.2628,2.89786 15.33282,8.83226 16.47568,8.83226 1.15275,0 1.12828,-1.46817 -0.0889,-5.33623 -4.06409,-12.91487 -6.45731,-27.25363 -6.46232,-38.71851 -0.005,-11.01569 1.64539,-19.94905 5.4737,-29.63171 2.32422,-5.87846 3.36872,-7.70455 4.84304,-8.46695 1.63693,-0.84649 3.87145,-0.27533 4.62519,1.18224 0.54636,1.05654 0.50412,2.42671 -0.14725,4.77648 -1.51027,5.44827 -2.29994,11.41644 -2.53736,19.17698 -0.49093,16.04697 3.2329,33.46289 11.01339,51.50838 3.80111,8.81602 9.14458,17.27014 15.327342,24.25002 0.81608,0.92129 1.90412,2.29051 2.41788,3.04271 l 0.9341,1.36764 h 24.84514 24.84514 l 1.07597,-1.50394 c 0.59178,-0.82717 2.14753,-2.77394 3.45722,-4.32617 8.140245,-9.64773 13.601765,-19.80183 18.678555,-34.7273 2.95955,-8.70092 5.23426,-18.88211 6.10128,-27.30822 0.18717,-1.81901 0.33679,-6.22432 0.3325,-9.78958 -0.0104,-8.6724 -0.59767,-14.07771 -2.24755,-20.68817 -1.12696,-4.51526 -1.00849,-5.84036 0.61039,-6.82739 1.79269,-1.093 4.04731,-0.45575 5.3421695,1.50992 2.30759,3.50305 6.13223,14.74045 7.41018,21.77231 2.66533004,14.66576 0.75246,33.95616 -5.2949,53.3966 -1.08341,3.48284 -1.14395,5.15539 -0.1915,5.29096 1.20523,0.17155 14.30812,-6.94629 18.0039605,-9.78024 3.64642,-2.79605 7.27613,-7.25802 9.5056,-11.68518 2.01785,-4.0069 3.76951,-10.56196 4.74995,-17.77527 0.69511,-5.11403 0.63582,-16.01493 -0.11728,-21.56354 -1.31847,-9.71404 -4.01406,-19.90676 -7.75058,-29.30694 -1.38491,-3.4841 -1.60314,-5.03893 -0.89847,-6.40159 0.51456,-0.99505 1.56225,-1.79806 2.77037,-2.12337 4.29989,-1.15785 11.94301,6.14464 17.44259,16.66523 5.1292,9.81204 7.40462,20.83261 6.64505,32.18402 -0.39895,5.96205 -0.88711,9.06802 -2.52832,16.08676 -0.55658,2.38025 -0.89529,4.39904 -0.80106,4.77449 0.24316,0.96883 1.19273,1.72348 2.16864,1.72348 1.15539,0 2.65457,-1.72015 4.21386,-4.83499 1.43992,-2.87641 2.31744,-5.7018 3.0179,-9.71709 1.43116,-8.20407 1.43192,-14.71298 0.003,-21.86486 -0.99599,-4.98314 -2.30311,-8.42447 -5.86513,-15.44139 -2.21015,-4.35385 -4.45692,-9.78603 -8.80344,-21.28471 -1.81725,-4.80753 -2.29757,-6.36789 -2.30772,-7.49679 -0.0149,-1.65942 0.52516,-2.58345 1.92808,-3.29882 2.34305,-1.19475 3.78288,-0.34932 7.33043,4.30423 3.65567,4.79539 9.36897,13.36966 11.72051,17.58963 5.46777,9.81227 8.58364,19.15719 9.52534,28.56779 0.37433,3.74067 0.18476,11.31696 -0.37092,14.82388 -0.43193,2.726 -0.33909,3.82869 0.38809,4.60925 0.74946,0.80443 2.15747,0.73842 2.84316,-0.13329 3.23855,-4.11716 3.90991,-22.95446 1.22507,-34.37388 -0.8677,-3.69052 -0.50654,-5.67038 1.20172,-6.58794 2.27049,-1.21959 4.21968,0.29586 6.78418,5.27455 3.0076,5.83901 5.22552,12.26439 6.66906,19.32066 2.02197,9.88378 1.71368,15.614 -1.15337,21.43917 -1.43897,2.92359 -3.28248,4.98903 -8.32181,9.3236 -11.68096,10.04736 -20.43433,15.44992 -38.65401,23.85721 -3.8563,1.77945 -8.01445,3.70918 -9.24033,4.28828 -1.8183,0.85896 -2.67123,1.09532 -4.63021,1.2831 -9.5650905,0.91686 -17.0714605,4.38983 -23.7754605,11.00018 -3.38293,3.33575 -8.9408695,10.31128 -16.1132395,20.22314 l -2.78823,3.8532 0.73467,1.43846 c 0.40408,0.79116 1.04122,2.51003 1.41588,3.81972 1.9547,6.83303 2.18817,7.80521 1.87439,7.80521 -0.17575,0 -1.21819,-0.41519 -2.31652,-0.92265 -6.04224,-2.79169 -11.65858,-1.32153 -15.06082,3.94241 -2.472625,3.82562 -3.030825,8.91722 -1.656195,15.10685 0.3875,1.74479 0.788445,3.52954 0.890985,3.9661 0.169,0.71947 0.26598,0.55668 1.03632,-1.73955 2.35509,-7.02001 5.19857,-10.50988 12.61212,-15.4791 2.18225,-1.46274 4.16739,-2.734 4.41142,-2.82503 0.67104,-0.25031 0.96068,0.29999 1.29626,2.46289 0.34636,2.23233 0.16502,5.08724 -0.45594,7.17825 -1.31497,4.42797 -5.35475,10.03093 -9.2215,12.78973 -1.89389,1.35123 -5.68135,3.27986 -8.07763,4.11325 l -1.72762,0.60085 -1.281915,3.46081 c -2.19245,5.91905 -6.1775,16.38107 -9.05515,23.77261 -2.17745,5.593 -2.70121,7.1876 -2.4903,7.58171 0.14691,0.27448 1.07262,0.94769 2.05714,1.49602 4.37235,2.43514 7.6033,7.60135 7.93623,12.68985 0.36064,5.51178 -2.24444,9.79415 -7.4691,12.27814 -1.30969,0.62268 -2.62972,1.26759 -2.93341,1.43314 -0.30369,0.16556 -1.6937,1.55117 -3.08891,3.07913 -3.81178,4.17448 -13.03993,12.96583 -13.60018,12.95644 -0.2714,-0.005 -3.2436,-2.71971 -6.73392,-6.15155 z m -61.617542,-105.39749 c -0.3638,-0.0526 -1.73302,-0.22673 -3.04271,-0.38707 -3.36896,-0.41244 -8.74559,-1.8424 -12.26472,-3.26191 -14.36903,-5.79604 -24.21302,-17.36304 -27.54172,-32.36238 -0.68265,-3.07603 -0.70134,-4.03032 -0.0795,-4.0592 0.25466,-0.0118 5.52317,-0.0102 11.70781,0.004 13.36852,0.0299 16.10769,0.29584 20.9493,2.03389 3.93715,1.41337 6.09589,2.76998 10.27153,6.45495 3.88331,3.42699 19.05,18.03979 19.05,18.3543 0,0.30359 -2.76736,9.55614 -3.3576,11.22596 -0.24881,0.70391 -0.62841,1.22734 -0.98971,1.3647 -1.54625,0.58789 -11.92256,1.03469 -14.70269,0.6331 z m 125.544807,-0.13363 c -3.42858,-0.29611 -3.97743,-0.53044 -4.47101,-1.90894 -1.36968,-3.82529 -3.37156,-11.11099 -3.16628,-11.52346 0.21325,-0.42849 3.18182,-3.30586 13.9224695,-13.49476 9.62415,-9.12975 12.84715,-11.03837 21.0991905,-12.49465 2.62508,-0.46326 4.60832,-0.55735 14.44911,-0.68551 6.27352,-0.0817 11.72063,-0.0697 12.10469,0.0267 0.86568,0.21727 0.8859,0.71756 0.16178,4.00164 -3.08727,14.00153 -11.82571,25.06565 -24.65904,31.22189 -8.7612505,4.20282 -18.47004046,5.80455 -29.44091,4.85707 z"
       id="path302"
       inkscape:export-filename="Remindeer SVG.png"
       inkscape:export-xdpi="96"
       inkscape:export-ydpi="96" /></g></svg>
